<?xml version="1.0" encoding="UTF-8" standalone="no"?>
<!-- Created with Inkscape (http://www.inkscape.org/) -->

<svg
   width="30"
   height="30"
   viewBox="0 0 7.9374998 7.9375"
   version="1.1"
   id="svg5"
   inkscape:version="1.2 (dc2aedaf03, 2022-05-15)"
   sodipodi:docname="loading.svg"
   xmlns:inkscape="http://www.inkscape.org/namespaces/inkscape"
   xmlns:sodipodi="http://sodipodi.sourceforge.net/DTD/sodipodi-0.dtd"
   xmlns="http://www.w3.org/2000/svg"
   xmlns:svg="http://www.w3.org/2000/svg">
  <sodipodi:namedview
     id="namedview7"
     pagecolor="#505050"
     bordercolor="#eeeeee"
     borderopacity="1"
     inkscape:showpageshadow="0"
     inkscape:pageopacity="0"
     inkscape:pagecheckerboard="0"
     inkscape:deskcolor="#505050"
     inkscape:document-units="mm"
     showgrid="false"
     inkscape:zoom="11.930303"
     inkscape:cx="9.6812294"
     inkscape:cy="15.590551"
     inkscape:window-width="1920"
     inkscape:window-height="1017"
     inkscape:window-x="1912"
     inkscape:window-y="-8"
     inkscape:window-maximized="1"
     inkscape:current-layer="layer1" />
  <defs
     id="defs2">
    <linearGradient
       id="linearGradient4427"
       inkscape:swatch="solid">
      <stop
         style="stop-color:#528f36;stop-opacity:1;"
         offset="0"
         id="stop4425" />
    </linearGradient>
    <linearGradient
       id="linearGradient2617"
       inkscape:swatch="solid">
      <stop
         style="stop-color:#008000;stop-opacity:1;"
         offset="0"
         id="stop2615" />
    </linearGradient>
  </defs>
  <g
     inkscape:label="Layer 1"
     inkscape:groupmode="layer"
     id="layer1">
    <rect
       style="fill:#ffffff;fill-opacity:0;fill-rule:nonzero;stroke-width:1.049"
       id="rect6661"
       width="7.9375"
       height="7.9375"
       x="4.4408921e-16"
       y="2.7755576e-17" />
    <path
       id="path2613"
       style="fill:#506f44;fill-opacity:1;fill-rule:nonzero;stroke-width:0.961583"
       d="M 3.96875 0.30954183 A 3.6592741 3.6592741 0 0 0 0.30954183 3.96875 A 3.6592741 3.6592741 0 0 0 1.541508 6.7039836 L 1.541508 4.1981934 A 2.4395161 2.4395161 0 0 1 1.5291056 3.9584147 A 2.4395161 2.4395161 0 0 1 3.96875 1.5187703 A 2.4395161 2.4395161 0 0 1 5.0332845 1.7631999 L 5.0332845 0.46870524 A 3.6592741 3.6592741 0 0 0 3.96875 0.30954183 z M 6.4083944 1.2438517 L 6.4083944 3.924825 L 6.4078776 3.924825 A 2.4395161 2.4395161 0 0 1 6.4083944 3.9584147 A 2.4395161 2.4395161 0 0 1 3.96875 6.3975423 A 2.4395161 2.4395161 0 0 1 2.9161011 6.1572469 L 2.9161011 7.4718953 A 3.6592741 3.6592741 0 0 0 3.96875 7.6279582 A 3.6592741 3.6592741 0 0 0 7.6279582 3.96875 A 3.6592741 3.6592741 0 0 0 6.4083944 1.2438517 z " />
  </g>
</svg>
